<svg id="Layer_1" data-name="Layer 1" xmlns="http://www.w3.org/2000/svg" viewBox="0 0 800 280"><defs><style>.cls-1{fill:#ed1c24;}.cls-2{fill:#231f20;}</style></defs><title>_</title><path class="cls-1" d="M720.45,125.41a65.79,65.79,0,0,1-12.36,5.8,58.51,58.51,0,0,1-14.62,3.65c-2.13.35-4.29.65-6.51.87h-.07c-20.49,1.76-38-2.65-48-12.07-.1-.06-.16-.18-.26-.25,0,.37,0,.73-.06,1.13a17.38,17.38,0,0,0,4.4,11.37c8.12,9.32,23.74,14.41,41.9,14.69,12.09.08,23.13-2.2,31.58-6.26a33.47,33.47,0,0,0,10.56-7.7,17.41,17.41,0,0,0,4.6-11.32,16.37,16.37,0,0,0-1.85-7.57A41.43,41.43,0,0,1,720.45,125.41Zm-35.71-12.88c-19.15,1.47-35.65-2.11-45.9-10.28a17.82,17.82,0,0,0,4.36,10.32c8.11,9.33,23.75,14.39,41.89,14.69,12.11.08,23.14-2.2,31.58-6.27a32.87,32.87,0,0,0,10.57-7.7A17.47,17.47,0,0,0,731.81,102,16.58,16.58,0,0,0,729,92.78C726.37,96.29,715.08,110.22,684.74,112.53Zm.55-8.62c12.11.07,23.14-2.19,31.57-6.28a32.85,32.85,0,0,0,10.59-7.7,16.58,16.58,0,0,0,.19-22.68c-8.13-9.34-23.74-14.39-41.9-14.68-12.1-.09-23.13,2.18-31.56,6.25a33.43,33.43,0,0,0-10.59,7.7,16.6,16.6,0,0,0-.19,22.71C651.5,98.54,667.14,103.6,685.29,103.9ZM649.94,68.67C654.35,63.28,668.07,58,684.1,58.3c10.72.07,20.34,2.36,26.83,5.68a22,22,0,0,1,7.16,5.26,6.22,6.22,0,0,1-.07,9.11C713.63,83.74,699.9,89,683.85,88.72,673.13,88.64,663.52,86.35,657,83a22.88,22.88,0,0,1-7.16-5.26,7.11,7.11,0,0,1-1.95-4.6A7,7,0,0,1,649.94,68.67Z"/><path class="cls-1" d="M234.53,115.92q-6.45-7.42-18.25-7.43H180.37l-2.68,13.6H213.6a10.66,10.66,0,0,1,8.85,3.93,11.42,11.42,0,0,1,2.06,9.66L224,138l-.18,1.61H190.53a33.3,33.3,0,0,0-21.38,7.69,32.4,32.4,0,0,0-11.89,19.5l-.35,1.43q-2.51,11.79,3.84,19.5t18.16,7.69h47L238.65,135Q241,123.35,234.53,115.92ZM215,181.83H181.77a11.19,11.19,0,0,1-9-3.93q-3.31-3.93-2.06-9.66l.36-1.43a15.86,15.86,0,0,1,6-9.66,16.71,16.71,0,0,1,10.64-3.94h33.09Zm100.3-73.34-15.21,73.16H265.8a11.18,11.18,0,0,1-9-3.94c-2.21-2.62-2.89-5.84-2.05-9.66L267,108.5H253.27l-12.34,59.56q-2.51,11.81,3.94,19.5t18.24,7.7h34.52l-1.07,5a17,17,0,0,1-6.17,9.56,16.28,16.28,0,0,1-10.47,4h-47L230,227.44h47a32.7,32.7,0,0,0,21.11-7.87,33.78,33.78,0,0,0,12.16-19.32l19-91.76Z"/><path class="cls-2" d="M459.84,195.43h-47q-11.81,0-18.15-7.69t-3.85-19.5l.36-1.43A32.38,32.38,0,0,1,403,147.31a33.29,33.29,0,0,1,21.38-7.69h33.26l.18-1.61.54-2.32a11.43,11.43,0,0,0-2.06-9.66,10.67,10.67,0,0,0-8.86-3.93H408.79l2.68-13.6h38.71q11.8,0,18.24,7.43t4.12,19Zm-10.91-13.59,5.72-28.62H421.56a16.7,16.7,0,0,0-10.64,3.94,15.91,15.91,0,0,0-6,9.66l-.35,1.43q-1.26,5.72,2.05,9.66a11.19,11.19,0,0,0,9,3.93Z"/><path class="cls-2" d="M550.06,172.18a27.16,27.16,0,0,1-12,17.71,35.62,35.62,0,0,1-20.4,5.9h-46.5L474,182.19h46.51q13.77,0,15.74-10L537,169q2.14-10-11.63-10H504.45q-11.63,0-17.88-5.9-7.15-6.44-4.83-17.7l.72-3.22a27.12,27.12,0,0,1,12-17.71,35.67,35.67,0,0,1,20.39-5.9h46.68l-2.69,13.6H512.14q-13.78,0-15.92,10l-.71,3.22q-2,10,11.81,10h20.92q11.62,0,17.89,5.9,7,6.44,4.65,17.71Z"/><path class="cls-2" d="M612.91,195.25H591.09q-11.81,0-18.24-7.7t-3.94-19.5l9.66-46.68H570l3-14h8.59l6.44-31.12h14l-6.44,31.12h29l-3,14h-29l-9.66,46.68c-.83,3.81-.18,7,2,9.66a10.9,10.9,0,0,0,8.95,3.94H615.6Z"/><path class="cls-1" d="M172,116.41a32.2,32.2,0,0,1-11.9,19q-9.61,7.76-20.9,7.76H92.32L81.56,195.43H68L92.49,77.61H153q11.28,0,17.55,7.76t4,19Zm-13.58,0,2.47-12q1.23-5.64-1.94-9.53A10.77,10.77,0,0,0,150.16,91H103.25l-8.11,38.8H142a16.11,16.11,0,0,0,10.41-3.88A16.61,16.61,0,0,0,158.45,116.41Z"/><path class="cls-2" d="M436,89.94H379a18,18,0,0,0-16.86,13.63l-5.32,26h35.56l-2.87,13.81H354.09l-11,52.18H329.29l19-92a34.78,34.78,0,0,1,33.55-27.27h57Z"/></svg>